<svg width="692" height="436" viewBox="0 0 692 436" fill="none" xmlns="http://www.w3.org/2000/svg">
<mask id="mask0_70_63" style="mask-type:alpha" maskUnits="userSpaceOnUse" x="0" y="0" width="692" height="436">
<rect width="692" height="436" fill="#D9D9D9"/>
</mask>
<g mask="url(#mask0_70_63)">
<g filter="url(#filter0_d_70_63)">
<ellipse cx="346.455" cy="250.458" rx="270.455" ry="100.88" fill="white"/>
<ellipse cx="346.455" cy="250.458" rx="270.455" ry="100.88" fill="url(#paint0_linear_70_63)"/>
</g>
<ellipse cx="344.534" cy="246.615" rx="262.769" ry="93.1942" fill="white"/>
<g opacity="0.4" filter="url(#filter1_f_70_63)">
<ellipse cx="346.5" cy="260.5" rx="156.5" ry="14.5" fill="black"/>
</g>
<path d="M346.777 65.515C399.367 65.515 442 50.849 442 32.7575C442 14.666 399.367 0 346.777 0C294.186 0 251.553 14.666 251.553 32.7575C251.553 50.849 294.186 65.515 346.777 65.515Z" fill="white"/>
<path d="M343.997 64.9677C353.212 65.1533 362.47 65.1121 371.577 63.9985C380.273 62.9365 388.991 62.0292 397.601 59.9258C406.848 57.6677 415.858 55.1003 424.521 51.2647C431.519 48.1611 441.427 41.1085 441.989 33.2207C441.989 34.8601 442.011 39.335 441.989 40.3867C441.178 72.7524 441.87 105.118 441.632 137.484C441.632 138.927 441.567 140.371 441.524 141.814C436.203 148.434 428.913 151.785 420.53 153.373C417.686 153.909 414.971 154.981 411.964 154.672C400.186 153.455 389.921 149.269 381.907 140.732C378.975 137.608 378.802 137.422 376.001 140.814C369.879 148.238 361.648 151.909 352.13 153.404C350.962 153.589 349.924 154.187 348.777 154.352C347.079 154.6 345.219 155.105 344.354 152.898C344.213 129.349 344.332 105.799 344.289 82.2487C344.289 76.4849 344.419 70.7109 343.986 64.9574L343.997 64.9677Z" fill="#9FA0A1"/>
<path d="M343.986 64.969C344.679 64.9794 345.382 64.9897 345.382 64.9897C345.382 64.9897 345.382 67.4127 345.382 68.1242C345.349 95.6644 345.36 123.194 345.328 150.735C345.328 151.714 345.025 152.694 344.862 153.673C344.743 153.797 344.614 153.921 344.495 154.044C333.452 153.941 324.096 149.992 316.557 142.393C312.123 137.918 312.263 137.722 307.926 142.084C300.247 149.807 290.696 154.23 279.718 154.302C270.038 154.364 260.92 151.425 253.576 144.816C252.689 144.012 252.202 143.053 251.694 142.053C251.662 109.017 251.629 75.981 251.618 42.9451C251.618 40.9964 251.618 37.1195 251.618 34.4902C254.376 44.5639 266.22 50.4926 275.565 54.1633C285.483 58.0505 295.899 60.4117 306.455 62.0614C318.872 64.0101 331.375 65.0618 343.976 64.969H343.986Z" fill="#3E3E3E"/>
<path d="M344.884 153.663C350.616 153.281 356.057 151.848 361.486 150.023C368.463 147.672 373.2 142.888 377.613 137.66C379.03 135.98 379.938 136.588 380.825 137.825C385.995 145.125 393.545 149.631 402.003 151.91C407.194 153.302 412.721 154.57 418.865 152.889C424.835 151.26 430.427 149.425 435.63 146.321C437.782 145.033 439.037 142.682 441.535 141.805C441.568 163.943 441.611 186.07 441.611 208.207C441.611 213.094 438.398 216.518 434.916 219.384C429.086 224.179 422.11 227.251 414.95 229.819C402.403 234.324 389.316 236.809 376.066 238.263C361.476 239.872 346.788 240.336 332.089 239.769C330.812 239.717 329.536 239.49 328.465 238.717C331.396 236.603 334.771 237.861 337.94 237.593C339.097 237.49 340.276 237.696 341.423 237.861C343.175 238.108 344.084 237.438 344.213 235.758C344.289 234.757 344.3 233.757 344.3 232.757C344.224 207.279 344.462 181.801 344.17 156.323C344.17 155.426 344.105 154.539 344.689 153.756L344.884 153.673V153.663Z" fill="#59B3D8"/>
<path d="M344.7 153.755C345.208 155.353 345.446 156.962 345.446 158.653C345.414 184.296 345.435 209.939 345.435 235.592C345.435 239.562 345.23 239.593 341.012 238.943C336.869 238.304 332.662 238.572 328.476 238.737C316.492 238.861 304.843 236.592 293.259 234.035C283.871 231.973 274.775 229.086 266.349 224.518C260.368 221.27 254.787 217.62 252.245 211.021C251.867 210.042 251.629 209.145 251.629 208.155C251.65 186.121 251.683 164.086 251.715 142.052C256.55 146.836 262.337 150.466 268.967 152.085C281.319 155.106 292.87 152.961 302.983 145.207C305.773 143.063 308.402 140.722 310.327 137.804C311.571 135.917 312.587 136.33 313.691 137.825C318.969 144.919 326.28 149.383 334.782 152.033C337.951 153.023 341.39 153.208 344.7 153.755Z" fill="#3998C5"/>
<path d="M288.641 44.0993C282.162 42.1814 276.127 39.6553 272.233 33.8812C270.654 31.5303 270.773 29.3548 272.125 27.0761C274.851 22.4878 279.415 20.0132 284.261 18.1881C301.144 11.816 318.785 9.63015 336.859 9.18678C352.974 8.79497 369.014 9.04243 384.914 11.6717C395.676 13.4452 406.264 15.9301 415.728 21.5288C417.74 22.7146 419.59 24.1478 420.801 26.0141C423.483 30.1178 423.527 33.2729 418.108 37.8096C414.398 40.9132 409.953 43.13 404.977 44.0683C396.087 41.3978 386.969 39.5728 377.764 38.3355C368.203 37.0466 358.577 36.4899 348.875 36.4074C333.906 36.2733 319.088 37.3147 304.432 40.0574C299.1 41.0472 293.876 42.6042 288.652 44.0993H288.641Z" fill="#B7D332"/>
<path d="M288.641 44.1001C288.781 43.1206 289.268 42.4916 290.36 42.2854C300.917 40.2026 311.343 37.728 322.159 36.5526C333.246 35.3462 344.235 35.8308 355.267 35.5524C364.936 35.3153 374.454 36.8722 383.961 38.3054C390.17 39.2437 396.302 40.4913 402.284 42.3576C403.29 42.6669 404.728 42.5844 404.977 44.0692C394.594 47.8429 383.734 49.7298 372.767 50.6681C362.351 51.5651 351.914 52.5034 341.401 52.0497C324.647 51.3177 308.012 49.8638 291.81 45.3993C290.717 45.1002 289.69 44.5435 288.63 44.1104L288.641 44.1001Z" fill="#7EB900"/>
</g>
<defs>
<filter id="filter0_d_70_63" x="-4" y="89.5781" width="700.911" height="361.761" filterUnits="userSpaceOnUse" color-interpolation-filters="sRGB">
<feFlood flood-opacity="0" result="BackgroundImageFix"/>
<feColorMatrix in="SourceAlpha" type="matrix" values="0 0 0 0 0 0 0 0 0 0 0 0 0 0 0 0 0 0 127 0" result="hardAlpha"/>
<feOffset dy="20"/>
<feGaussianBlur stdDeviation="40"/>
<feComposite in2="hardAlpha" operator="out"/>
<feColorMatrix type="matrix" values="0 0 0 0 0 0 0 0 0 0 0 0 0 0 0 0 0 0 0.1 0"/>
<feBlend mode="normal" in2="BackgroundImageFix" result="effect1_dropShadow_70_63"/>
<feBlend mode="normal" in="SourceGraphic" in2="effect1_dropShadow_70_63" result="shape"/>
</filter>
<filter id="filter1_f_70_63" x="130" y="186" width="433" height="149" filterUnits="userSpaceOnUse" color-interpolation-filters="sRGB">
<feFlood flood-opacity="0" result="BackgroundImageFix"/>
<feBlend mode="normal" in="SourceGraphic" in2="BackgroundImageFix" result="shape"/>
<feGaussianBlur stdDeviation="30" result="effect1_foregroundBlur_70_63"/>
</filter>
<linearGradient id="paint0_linear_70_63" x1="188.89" y1="169.274" x2="487.688" y2="338.849" gradientUnits="userSpaceOnUse">
<stop stop-color="#E4E9F1"/>
<stop offset="1" stop-color="#F0F3F8"/>
</linearGradient>
</defs>
</svg>
